<svg width="1920" height="801" viewBox="0 0 1920 801" fill="none" xmlns="http://www.w3.org/2000/svg">
<path d="M0 457.369L53.3 447.502C106.7 437.737 213.3 418.004 320 397.66C426.7 377.317 533.3 356.363 640 363.28C746.7 370.197 853.3 405.188 960 392.066C1066.7 379.046 1173.3 318.015 1280 320.05C1386.7 322.084 1493.3 387.184 1600 407.731C1706.7 428.176 1813.3 404.17 1866.7 392.066L1920 380.063V690.303H1866.7C1813.3 690.303 1706.7 690.303 1600 690.303C1493.3 690.303 1386.7 690.303 1280 690.303C1173.3 690.303 1066.7 690.303 960 690.303C853.3 690.303 746.7 690.303 640 690.303C533.3 690.303 426.7 690.303 320 690.303C213.3 690.303 106.7 690.303 53.3 690.303H0V457.369Z" fill="#FA7268"/>
<path d="M0 470.865L53.3 477.134C106.7 483.302 213.3 495.841 320 508.279C426.7 520.717 533.3 533.256 640 523.65C746.7 514.043 853.3 482.291 960 466.82C1066.7 451.348 1173.3 451.955 1280 459.539C1386.7 467.123 1493.3 481.685 1600 490.078C1706.7 498.471 1813.3 500.897 1866.7 502.01L1920 503.223V689.286H1866.7C1813.3 689.286 1706.7 689.286 1600 689.286C1493.3 689.286 1386.7 689.286 1280 689.286C1173.3 689.286 1066.7 689.286 960 689.286C853.3 689.286 746.7 689.286 640 689.286C533.3 689.286 426.7 689.286 320 689.286C213.3 689.286 106.7 689.286 53.3 689.286H0V470.865Z" fill="#C62368"/>
<path d="M0 764.265L11.7877 767.019C23.6753 769.773 47.2508 775.282 70.9261 780.264C94.6015 785.27 118.177 789.725 142.052 784.911C165.827 780.072 189.802 765.941 213.578 762.468C237.453 758.995 261.028 766.181 284.703 775.689C308.379 785.174 331.954 797.006 355.63 797.916C379.305 798.826 402.88 788.863 426.556 782.827C450.231 776.791 473.806 774.731 497.482 773.606C521.157 772.48 544.733 772.336 568.608 769.845C592.383 767.378 616.358 762.588 640.133 760.385C664.008 758.205 687.584 758.588 711.259 763.115C734.934 767.618 758.51 776.24 782.185 782.348C805.861 788.455 829.436 792.048 853.111 786.779C876.787 781.51 900.362 767.378 924.237 765.223C948.013 763.067 971.988 772.887 995.763 775.522C1019.64 778.156 1043.21 773.606 1066.89 769.486C1090.56 765.39 1114.14 761.702 1137.81 760.432C1161.49 759.163 1185.07 760.265 1208.74 767.187C1232.42 774.085 1255.99 786.779 1279.87 793.916C1303.64 801.078 1327.62 802.658 1351.39 796.551C1375.27 790.443 1398.84 776.647 1422.52 775.809C1446.19 774.971 1469.77 787.09 1493.44 783.306C1517.12 779.522 1540.7 759.786 1564.37 756.792C1588.05 753.798 1611.62 767.546 1635.3 772.24C1658.97 776.959 1682.55 772.648 1706.42 775.713C1730.2 778.803 1754.17 789.246 1777.95 786.611C1801.82 783.977 1825.4 768.264 1849.07 765.39C1872.75 762.516 1896.32 772.48 1908.21 777.486L1920 782.468V648.101H1908.21C1896.32 648.101 1872.75 648.101 1849.07 648.101C1825.4 648.101 1801.82 648.101 1777.95 648.101C1754.17 648.101 1730.2 648.101 1706.42 648.101C1682.55 648.101 1658.97 648.101 1635.3 648.101C1611.62 648.101 1588.05 648.101 1564.37 648.101C1540.7 648.101 1517.12 648.101 1493.44 648.101C1469.77 648.101 1446.19 648.101 1422.52 648.101C1398.84 648.101 1375.27 648.101 1351.39 648.101C1327.62 648.101 1303.64 648.101 1279.87 648.101C1255.99 648.101 1232.42 648.101 1208.74 648.101C1185.07 648.101 1161.49 648.101 1137.81 648.101C1114.14 648.101 1090.56 648.101 1066.89 648.101C1043.21 648.101 1019.64 648.101 995.763 648.101C971.988 648.101 948.013 648.101 924.237 648.101C900.362 648.101 876.787 648.101 853.111 648.101C829.436 648.101 805.861 648.101 782.185 648.101C758.51 648.101 734.934 648.101 711.259 648.101C687.584 648.101 664.008 648.101 640.133 648.101C616.358 648.101 592.383 648.101 568.608 648.101C544.733 648.101 521.157 648.101 497.482 648.101C473.806 648.101 450.231 648.101 426.556 648.101C402.88 648.101 379.305 648.101 355.63 648.101C331.954 648.101 308.379 648.101 284.703 648.101C261.028 648.101 237.453 648.101 213.578 648.101C189.802 648.101 165.827 648.101 142.052 648.101C118.177 648.101 94.6015 648.101 70.9261 648.101C47.2508 648.101 23.6753 648.101 11.7877 648.101H0V764.265Z" fill="#C62368"/>
</svg>
