<svg width="1920" height="927" viewBox="0 0 1920 927" fill="none" xmlns="http://www.w3.org/2000/svg">
<path d="M0 927L10.3 924C20.7 921 41.3 915 62 910.3C82.7 905.7 103.3 902.3 124 901.5C144.7 900.7 165.3 902.3 186 902C206.7 901.7 227.3 899.3 248 900.8C268.7 902.3 289.3 907.7 310 907.5C330.7 907.3 351.3 901.7 372 900.3C392.7 899 413.3 902 433.8 905.2C454.3 908.3 474.7 911.7 495.2 909.2C515.7 906.7 536.3 898.3 557 893.7C577.7 889 598.3 888 619 887C639.7 886 660.3 885 681 886.5C701.7 888 722.3 892 743 897C763.7 902 784.3 908 805 910.7C825.7 913.3 846.3 912.7 867 914.8C887.7 917 908.3 922 929 924C949.7 926 970.3 925 991 920.3C1011.7 915.7 1032.3 907.3 1053 906.3C1073.7 905.3 1094.3 911.7 1115 916C1135.7 920.3 1156.3 922.7 1177 921.3C1197.7 920 1218.3 915 1239 915.7C1259.7 916.3 1280.3 922.7 1301 922.5C1321.7 922.3 1342.3 915.7 1363 908C1383.7 900.3 1404.3 891.7 1424.8 893.8C1445.3 896 1465.7 909 1486.2 915.5C1506.7 922 1527.3 922 1548 916.8C1568.7 911.7 1589.3 901.3 1610 901.7C1630.7 902 1651.3 913 1672 914.3C1692.7 915.7 1713.3 907.3 1734 902C1754.7 896.7 1775.3 894.3 1796 897.3C1816.7 900.3 1837.3 908.7 1858 911.2C1878.7 913.7 1899.3 910.3 1909.7 908.7L1920 907V847H1909.7C1899.3 847 1878.7 847 1858 847C1837.3 847 1816.7 847 1796 847C1775.3 847 1754.7 847 1734 847C1713.3 847 1692.7 847 1672 847C1651.3 847 1630.7 847 1610 847C1589.3 847 1568.7 847 1548 847C1527.3 847 1506.7 847 1486.2 847C1465.7 847 1445.3 847 1424.8 847C1404.3 847 1383.7 847 1363 847C1342.3 847 1321.7 847 1301 847C1280.3 847 1259.7 847 1239 847C1218.3 847 1197.7 847 1177 847C1156.3 847 1135.7 847 1115 847C1094.3 847 1073.7 847 1053 847C1032.3 847 1011.7 847 991 847C970.3 847 949.7 847 929 847C908.3 847 887.7 847 867 847C846.3 847 825.7 847 805 847C784.3 847 763.7 847 743 847C722.3 847 701.7 847 681 847C660.3 847 639.7 847 619 847C598.3 847 577.7 847 557 847C536.3 847 515.7 847 495.2 847C474.7 847 454.3 847 433.8 847C413.3 847 392.7 847 372 847C351.3 847 330.7 847 310 847C289.3 847 268.7 847 248 847C227.3 847 206.7 847 186 847C165.3 847 144.7 847 124 847C103.3 847 82.7 847 62 847C41.3 847 20.7 847 10.3 847H0V927Z" fill="#082FB3"/>
<g clip-path="url(#clip0_191_27)">
<path d="M0 177.428L80 173.02C160 168.529 320 159.712 480 170.192C640 180.755 800 210.699 960 198.638C1120 186.578 1280 132.513 1440 112.967C1600 93.4201 1760 108.392 1840 115.878L1920 123.364V51H1840C1760 51 1600 51 1440 51C1280 51 1120 51 960 51C800 51 640 51 480 51C320 51 160 51 80 51H0V177.428Z" fill="#0066FF"/>
<path d="M0 213.194H80C160 213.194 320 213.194 480 217.769C640 222.344 800 231.493 960 218.019C1120 204.627 1280 168.529 1440 153.557C1600 138.585 1760 144.74 1840 147.734L1920 150.812V121.7L1840 114.214C1760 106.728 1600 91.7566 1440 111.303C1280 130.85 1120 184.914 960 196.975C800 209.036 640 179.092 480 168.529C320 158.048 160 166.865 80 171.357L0 175.765V213.194Z" fill="#055FF5"/>
<path d="M0 555.05L80 528.018C160 500.985 320 446.921 480 409.491C640 372.062 800 351.268 960 346.859C1120 342.368 1280 354.345 1440 358.753C1600 363.162 1760 360.167 1840 358.587L1920 357.09V149.148L1840 146.071C1760 143.076 1600 136.921 1440 151.893C1280 166.865 1120 202.964 960 216.355C800 229.83 640 220.68 480 216.106C320 211.531 160 211.531 80 211.531H0V555.05Z" fill="#0958EC"/>
<path d="M0 698.946L80 652.533C160 606.038 320 513.212 480 456.236C640 399.261 800 378.134 960 379.714C1120 381.211 1280 405.332 1440 406.83C1600 408.41 1760 387.283 1840 376.803L1920 366.239V355.426L1840 356.924C1760 358.504 1600 361.498 1440 357.09C1280 352.682 1120 340.704 960 345.196C800 349.604 640 370.398 480 407.828C320 445.257 160 499.322 80 526.354L0 553.387V698.946Z" fill="#0B51E2"/>
<path d="M0 761.328L80 716.413C160 671.497 320 581.667 480 530.763C640 479.942 800 467.964 960 473.953C1120 479.942 1280 503.73 1440 506.808C1600 509.885 1760 492.085 1840 483.269L1920 474.369V364.576L1840 375.139C1760 385.619 1600 406.746 1440 405.166C1280 403.669 1120 379.547 960 378.05C800 376.47 640 397.597 480 454.573C320 511.549 160 604.374 80 650.87L0 697.282V761.328Z" fill="#0C4AD8"/>
<path d="M0 770.477L80 736.125C160 701.69 320 632.986 480 589.568C640 546.15 800 528.184 960 534.089C1120 540.078 1280 570.022 1440 576.011C1600 581.916 1760 563.95 1840 554.884L1920 545.901V472.705L1840 481.605C1760 490.422 1600 508.222 1440 505.144C1280 502.067 1120 478.278 960 472.289C800 466.301 640 478.278 480 529.099C320 580.003 160 669.834 80 714.749L0 759.664V770.477Z" fill="#0C43CF"/>
<path d="M0 806.244L80 770.311C160 734.462 320 662.598 480 622.257C640 581.916 800 573.1 960 582.083C1120 591.066 1280 618.015 1440 623.92C1600 629.909 1760 614.937 1840 607.452L1920 599.966V544.237L1840 553.22C1760 562.287 1600 580.253 1440 574.347C1280 568.359 1120 538.415 960 532.426C800 526.521 640 544.487 480 587.905C320 631.323 160 700.027 80 734.462L0 768.814V806.244Z" fill="#0C3DC5"/>
<path d="M0 833.691L80 818.72C160 803.748 320 773.804 480 757.335C640 740.783 800 737.789 960 731.634C1120 725.562 1280 716.412 1440 717.909C1600 719.49 1760 731.634 1840 737.789L1920 743.861V598.302L1840 605.787C1760 613.273 1600 628.245 1440 622.256C1280 616.351 1120 589.402 960 580.419C800 571.436 640 580.252 480 620.593C320 660.934 160 732.798 80 768.647L0 804.58V833.691Z" fill="#0A36BC"/>
<path d="M-72 939.326L79.5 1110.67C161.083 1090.86 307.333 1069.26 470.5 1058.68C633.667 1048.1 821.833 1054.11 985 1058.68C1148.17 1063.17 1386 1243.75 1533 1076.98C1696.17 1075.38 2094 1058.68 1939 878.607V817.465V742.985L1857.42 736.807C1775.83 730.543 1612.67 718.187 1449.5 716.578C1286.33 715.055 1123.17 724.365 960 730.543C796.833 736.807 633.667 739.853 470.5 756.696C307.333 773.454 144.167 803.923 62.5833 819.157L-19 834.392L-72 939.326Z" fill="#082FB3"/>
</g>
<path d="M0 30.2186L12.3 29.3694C24.7 28.6416 49.3 26.9434 74 21.9699C98.7 16.8751 123.3 8.38371 148 12.3868C172.7 16.5111 197.3 33.0086 221.8 35.9199C246.3 38.7099 270.7 27.7925 295.2 25.0025C319.7 22.0912 344.3 27.4286 369 29.6121C393.7 31.7955 418.3 31.0677 443 31.189C467.7 31.4316 492.3 32.6447 517 29.2482C541.7 25.7303 566.3 17.7242 591 18.6946C615.7 19.6651 640.3 29.8547 664.8 28.6416C689.3 27.4286 713.7 14.8129 738.2 8.1411C762.7 1.46933 787.3 0.741533 812 9.23287C836.7 17.7242 861.3 35.4347 886 40.2869C910.7 45.1391 935.3 37.133 960 28.0351C984.7 18.9373 1009.3 8.74765 1034 12.2655C1058.7 15.662 1083.3 32.6447 1108 38.9525C1132.7 45.1391 1157.3 40.7721 1181.8 33.8577C1206.3 26.9434 1230.7 17.7242 1255.2 15.662C1279.7 13.5998 1304.3 18.9373 1329 20.1503C1353.7 21.3633 1378.3 18.452 1403 21.4846C1427.7 24.5172 1452.3 33.4938 1477 31.6743C1501.7 29.8547 1526.3 17.239 1551 16.2685C1575.7 15.2981 1600.3 25.7303 1624.8 33.2512C1649.3 40.7721 1673.7 45.1391 1698.2 41.3786C1722.7 37.4969 1747.3 25.3664 1772 23.5468C1796.7 21.7272 1821.3 30.2186 1846 33.4938C1870.7 36.6478 1895.3 34.7068 1907.7 33.6151L1920 32.6447V101.788H1907.7C1895.3 101.788 1870.7 101.788 1846 101.788C1821.3 101.788 1796.7 101.788 1772 101.788C1747.3 101.788 1722.7 101.788 1698.2 101.788C1673.7 101.788 1649.3 101.788 1624.8 101.788C1600.3 101.788 1575.7 101.788 1551 101.788C1526.3 101.788 1501.7 101.788 1477 101.788C1452.3 101.788 1427.7 101.788 1403 101.788C1378.3 101.788 1353.7 101.788 1329 101.788C1304.3 101.788 1279.7 101.788 1255.2 101.788C1230.7 101.788 1206.3 101.788 1181.8 101.788C1157.3 101.788 1132.7 101.788 1108 101.788C1083.3 101.788 1058.7 101.788 1034 101.788C1009.3 101.788 984.7 101.788 960 101.788C935.3 101.788 910.7 101.788 886 101.788C861.3 101.788 836.7 101.788 812 101.788C787.3 101.788 762.7 101.788 738.2 101.788C713.7 101.788 689.3 101.788 664.8 101.788C640.3 101.788 615.7 101.788 591 101.788C566.3 101.788 541.7 101.788 517 101.788C492.3 101.788 467.7 101.788 443 101.788C418.3 101.788 393.7 101.788 369 101.788C344.3 101.788 319.7 101.788 295.2 101.788C270.7 101.788 246.3 101.788 221.8 101.788C197.3 101.788 172.7 101.788 148 101.788C123.3 101.788 98.7 101.788 74 101.788C49.3 101.788 24.7 101.788 12.3 101.788H0V30.2186Z" fill="#0066FF"/>
<defs>
<clipPath id="clip0_191_27">
<rect width="1920" height="748" fill="white" transform="translate(0 99)"/>
</clipPath>
</defs>
</svg>
